<?xml version="1.0" standalone="no"?>
<!DOCTYPE svg PUBLIC "-//W3C//DTD SVG 20010904//EN"
 "http://www.w3.org/TR/2001/REC-SVG-20010904/DTD/svg10.dtd">
<svg version="1.0" xmlns="http://www.w3.org/2000/svg"
 width="500.000000pt" height="500.000000pt" viewBox="0 0 500.000000 500.000000"
 preserveAspectRatio="xMidYMid meet">

<g transform="translate(0.000000,500.000000) scale(0.100000,-0.100000)"
fill="#000000" stroke="none">
<path d="M1420 3910 l0 -70 415 0 415 0 0 -670 0 -670 80 0 80 0 0 740 0 740
-495 0 -495 0 0 -70z"/>
<path d="M2590 3230 l0 -740 495 0 495 0 0 70 0 70 -415 0 -415 0 0 670 0 670
-80 0 -80 0 0 -740z"/>
<path d="M1360 1290 l0 -140 90 0 c73 0 90 3 90 15 0 12 -15 15 -75 15 l-75 0
0 125 c0 104 -2 125 -15 125 -13 0 -15 -22 -15 -140z"/>
<path d="M2470 1290 l0 -140 96 0 c72 0 95 3 92 13 -3 8 -31 13 -81 15 l-77 3
0 124 c0 104 -2 125 -15 125 -13 0 -15 -22 -15 -140z"/>
<path d="M1580 1290 c0 -74 17 -123 45 -134 29 -11 75 -6 100 10 23 15 25 15
25 0 0 -9 5 -16 10 -16 6 0 10 42 10 105 0 63 -4 105 -10 105 -5 0 -10 -24
-10 -54 0 -99 -34 -145 -96 -130 -35 9 -44 33 -44 113 0 56 -3 71 -15 71 -12
0 -15 -14 -15 -70z"/>
<path d="M1864 1347 c-32 -19 -19 -39 14 -21 15 8 34 14 42 14 25 0 60 -30 60
-51 0 -16 -7 -19 -48 -19 -27 0 -57 -7 -70 -16 -27 -19 -29 -64 -4 -87 21 -19
73 -22 103 -7 13 7 19 7 19 0 0 -5 7 -10 15 -10 12 0 15 16 15 83 0 74 -3 86
-23 105 -26 25 -88 29 -123 9z m116 -121 c0 -28 -33 -56 -67 -56 -21 0 -53 24
-53 40 0 22 34 40 76 40 40 0 44 -2 44 -24z"/>
<path d="M2090 1255 c0 -87 3 -105 15 -105 12 0 15 15 15 73 0 58 4 77 18 89
29 26 61 31 87 14 23 -15 25 -23 25 -96 0 -64 3 -80 15 -80 12 0 15 16 15 84
0 79 -2 86 -26 105 -32 25 -81 27 -112 5 -20 -14 -22 -14 -22 0 0 9 -7 16 -15
16 -12 0 -15 -18 -15 -105z"/>
<path d="M2700 1277 c0 -74 3 -86 23 -105 28 -26 82 -29 115 -6 20 14 22 14
22 0 0 -9 7 -16 15 -16 12 0 15 18 15 105 0 87 -3 105 -15 105 -12 0 -15 -14
-15 -69 0 -77 -15 -105 -62 -117 -21 -4 -33 0 -52 20 -23 22 -26 33 -26 96 0
40 -4 70 -10 70 -6 0 -10 -34 -10 -83z"/>
<path d="M2979 1331 c-24 -24 -29 -38 -29 -76 0 -38 5 -52 29 -76 36 -35 95
-40 132 -10 32 26 20 35 -19 16 -58 -30 -114 5 -114 72 0 28 7 43 27 60 31 27
49 28 89 8 37 -20 48 -9 17 16 -37 30 -96 25 -132 -10z"/>
<path d="M3204 1347 c-32 -19 -19 -39 14 -21 15 8 34 14 42 14 25 0 60 -30 60
-51 0 -16 -7 -19 -48 -19 -80 0 -119 -46 -80 -95 21 -27 72 -34 109 -15 13 7
19 7 19 0 0 -5 7 -10 15 -10 12 0 15 16 15 83 0 74 -3 86 -23 105 -26 25 -88
29 -123 9z m116 -121 c0 -28 -33 -56 -67 -56 -21 0 -53 24 -53 40 0 22 34 40
76 40 40 0 44 -2 44 -24z"/>
<path d="M3432 1345 c-17 -13 -22 -25 -20 -48 3 -28 8 -34 48 -46 63 -19 75
-26 78 -44 6 -28 -41 -42 -89 -28 -22 7 -44 10 -47 7 -13 -14 21 -30 72 -34
45 -4 57 -1 75 17 41 41 18 83 -52 96 -43 8 -69 29 -61 50 8 19 55 28 87 16
18 -7 28 -7 33 0 10 16 -2 22 -53 26 -34 3 -55 0 -71 -12z"/>
<path d="M2520 875 c-7 -9 -10 -19 -6 -22 4 -4 11 -1 15 6 7 11 15 11 46 0 34
-12 38 -12 51 5 18 25 10 33 -12 12 -15 -15 -18 -15 -33 -1 -22 19 -45 19 -61
0z"/>
<path d="M686 747 c-33 -72 -61 -135 -63 -139 -2 -5 3 -8 11 -8 9 0 22 16 30
35 l15 35 81 0 80 0 17 -35 c9 -19 23 -35 31 -35 7 0 12 4 10 9 -2 5 -30 68
-62 140 -40 88 -64 131 -75 131 -11 0 -35 -43 -75 -133z m111 23 l31 -70 -65
0 c-73 0 -71 -8 -30 87 12 29 24 53 27 53 3 0 19 -32 37 -70z"/>
<path d="M3127 862 c-20 -22 -21 -60 -3 -85 12 -15 9 -22 -20 -51 -40 -40 -43
-68 -9 -101 29 -30 89 -34 136 -9 28 14 32 14 50 -2 26 -23 35 -12 15 19 -13
19 -14 30 -6 51 13 35 13 36 -4 36 -7 0 -16 -10 -20 -22 -5 -22 -7 -22 -43 15
l-38 37 28 25 c33 31 37 79 8 95 -30 16 -76 12 -94 -8z m87 -24 c8 -13 5 -23
-14 -43 -29 -31 -35 -31 -55 -1 -13 20 -14 29 -5 46 14 25 57 24 74 -2z m5
-200 c-26 -22 -67 -23 -97 -2 -29 20 -28 50 5 80 l27 25 43 -43 44 -43 -22
-17z"/>
<path d="M3513 860 c-41 -25 -63 -68 -63 -122 0 -81 58 -138 140 -138 42 0
100 23 100 40 0 14 -18 22 -25 11 -11 -19 -73 -30 -110 -20 -49 14 -75 51 -75
109 0 58 26 95 75 109 37 10 99 -1 110 -20 7 -11 25 -3 25 11 0 17 -59 40
-102 40 -25 0 -56 -8 -75 -20z"/>
<path d="M3760 740 c0 -118 2 -140 15 -140 11 0 15 12 15 45 l0 45 48 0 c46 0
50 -2 80 -45 17 -25 39 -45 47 -45 12 0 9 11 -15 46 l-32 45 25 23 c33 31 41
59 27 102 -15 46 -57 64 -145 64 l-65 0 0 -140z m160 100 c23 -12 35 -62 21
-88 -13 -24 -61 -42 -112 -42 l-39 0 0 70 0 70 56 0 c30 0 64 -4 74 -10z"/>
<path d="M4050 740 c0 -87 4 -140 10 -140 6 0 10 42 10 106 0 61 4 103 9 100
5 -4 30 -42 56 -87 25 -44 51 -79 58 -76 6 2 35 44 64 93 l53 89 0 -112 c0
-94 3 -113 15 -113 13 0 15 22 15 140 0 114 -3 140 -14 140 -8 0 -40 -45 -72
-100 -32 -55 -60 -100 -63 -100 -3 0 -32 45 -64 100 -31 55 -62 100 -67 100
-6 0 -10 -54 -10 -140z"/>
<path d="M1210 835 c0 -18 -5 -25 -20 -25 -11 0 -20 -4 -20 -10 0 -5 9 -10 20
-10 18 0 20 -7 20 -73 0 -93 16 -119 68 -115 21 2 35 7 32 13 -3 6 -13 9 -24
7 -36 -5 -46 16 -46 94 l0 74 30 0 c17 0 30 5 30 10 0 6 -13 10 -30 10 -25 0
-30 4 -30 25 0 16 -6 25 -15 25 -9 0 -15 -9 -15 -25z"/>
<path d="M940 730 c0 -73 3 -83 25 -105 28 -29 79 -33 113 -9 20 14 22 14 22
0 0 -9 7 -16 15 -16 12 0 15 18 15 105 0 87 -3 105 -15 105 -12 0 -15 -14 -15
-68 0 -43 -5 -75 -15 -89 -20 -29 -62 -38 -91 -18 -22 14 -24 22 -24 95 0 64
-3 80 -15 80 -12 0 -15 -16 -15 -80z"/>
<path d="M1374 776 c-47 -47 -47 -95 0 -142 71 -71 176 -29 176 71 0 100 -105
142 -176 71z m118 -6 c46 -36 43 -103 -6 -136 -66 -43 -152 54 -103 117 32 41
73 48 109 19z"/>
<path d="M1610 705 c0 -87 3 -105 15 -105 12 0 15 14 15 63 0 74 15 107 53
120 21 7 34 5 52 -7 23 -15 25 -22 25 -96 0 -64 3 -80 15 -80 12 0 15 14 15
63 0 74 15 107 53 120 21 7 34 5 52 -7 23 -15 25 -22 25 -96 0 -64 3 -80 15
-80 12 0 15 16 15 80 0 73 -3 83 -25 105 -30 31 -82 33 -117 5 -25 -19 -26
-19 -43 0 -22 24 -81 27 -113 4 -20 -14 -22 -14 -22 0 0 9 -7 16 -15 16 -12 0
-15 -18 -15 -105z"/>
<path d="M2053 800 c-13 -5 -23 -15 -23 -21 0 -7 9 -9 23 -5 64 18 75 18 96
-3 36 -36 27 -48 -40 -53 -66 -5 -89 -21 -89 -64 0 -47 81 -71 128 -38 20 14
22 14 22 0 0 -9 7 -16 16 -16 14 0 16 11 12 87 -4 74 -8 89 -27 105 -25 19
-80 23 -118 8z m117 -120 c0 -29 -35 -60 -68 -60 -32 0 -52 16 -52 42 0 24 27
37 78 38 35 0 42 -3 42 -20z"/>
<path d="M2288 782 c-27 -25 -31 -36 -31 -76 0 -48 26 -89 65 -102 10 -3 18
-12 18 -19 0 -8 7 -18 16 -23 23 -13 8 -32 -24 -32 -24 -1 -25 -2 -8 -11 13
-8 25 -8 42 0 27 12 31 33 9 51 -21 17 -19 30 4 30 22 0 69 35 59 45 -3 4 -20
-1 -37 -9 -16 -9 -37 -16 -46 -16 -26 0 -75 55 -75 85 0 30 49 85 75 85 9 0
30 -7 46 -16 39 -20 52 -9 20 17 -36 29 -94 25 -133 -9z"/>
<path d="M2513 800 c-13 -5 -23 -14 -23 -20 0 -13 4 -13 51 1 32 10 42 9 64
-5 14 -9 25 -25 25 -36 0 -17 -7 -20 -46 -20 -90 0 -133 -51 -84 -100 25 -25
86 -27 112 -3 17 15 18 15 18 0 0 -10 7 -17 15 -17 12 0 15 16 15 80 0 73 -3
83 -25 105 -26 27 -78 33 -122 15z m115 -127 c-6 -56 -106 -71 -116 -18 -6 27
25 45 76 45 41 0 43 -1 40 -27z"/>
<path d="M2749 781 c-64 -64 -21 -181 66 -181 68 0 115 43 115 105 0 93 -115
141 -181 76z m134 -22 c42 -52 8 -133 -57 -133 -49 0 -78 29 -78 80 0 75 87
110 135 53z"/>
</g>
</svg>
