<?xml version="1.0" standalone="no"?>
<!DOCTYPE svg PUBLIC "-//W3C//DTD SVG 20010904//EN"
 "http://www.w3.org/TR/2001/REC-SVG-20010904/DTD/svg10.dtd">
<svg version="1.0" xmlns="http://www.w3.org/2000/svg"
 width="512.000000pt" height="512.000000pt" viewBox="0 0 512.000000 512.000000"
 preserveAspectRatio="xMidYMid meet">

<g transform="translate(0.000000,512.000000) scale(0.100000,-0.100000)"
fill="#000000" stroke="none">
<path d="M1457 4073 c-4 -3 -7 -35 -7 -70 l0 -63 425 -2 425 -3 0 -687 1 -688
84 0 85 0 -2 758 -3 757 -501 3 c-275 1 -504 -1 -507 -5z"/>
<path d="M2650 3310 l0 -760 510 0 511 0 -3 68 -3 67 -422 3 -423 2 -1 628 c0
345 -1 654 -2 687 l-2 60 -82 3 -83 3 0 -761z"/>
<path d="M1390 1320 l0 -140 95 0 c114 0 128 18 18 22 l-78 3 -3 128 c-2 104
-5 127 -17 127 -13 0 -15 -23 -15 -140z"/>
<path d="M2530 1320 l0 -140 95 0 c57 0 95 4 95 10 0 6 -33 10 -80 10 l-80 0
0 130 c0 109 -2 130 -15 130 -13 0 -15 -22 -15 -140z"/>
<path d="M1621 1304 c4 -76 7 -88 28 -105 28 -23 88 -25 119 -3 20 14 22 14
22 0 0 -9 7 -16 15 -16 12 0 15 18 15 105 0 83 -3 105 -14 105 -10 0 -15 -20
-18 -76 -3 -65 -7 -79 -27 -95 -30 -25 -66 -24 -91 1 -16 16 -20 33 -20 95 0
62 -3 75 -16 75 -14 0 -16 -12 -13 -86z"/>
<path d="M1904 1376 c-28 -21 -11 -30 31 -15 31 11 40 11 63 -2 15 -8 28 -25
30 -37 3 -20 -1 -22 -45 -22 -64 0 -97 -18 -101 -54 -5 -40 22 -66 70 -66 22
0 48 5 59 10 13 7 19 7 19 0 0 -5 7 -10 15 -10 12 0 15 15 15 79 0 103 -19
131 -89 131 -26 0 -56 -6 -67 -14z m126 -120 c0 -29 -34 -56 -70 -56 -30 0
-50 17 -50 42 0 24 27 37 78 38 38 0 42 -2 42 -24z"/>
<path d="M2140 1285 c0 -87 3 -105 15 -105 12 0 15 15 15 74 0 69 2 76 27 96
20 16 36 20 58 16 44 -9 50 -20 54 -106 2 -63 6 -80 18 -80 12 0 14 15 12 86
-4 76 -7 88 -28 105 -28 23 -88 25 -119 3 -20 -14 -22 -14 -22 0 0 9 -7 16
-15 16 -12 0 -15 -18 -15 -105z"/>
<path d="M2760 1310 c0 -73 3 -83 25 -105 29 -29 88 -34 123 -9 20 14 22 14
22 0 0 -9 7 -16 15 -16 12 0 15 18 15 105 0 83 -3 105 -14 105 -10 0 -15 -19
-18 -75 -4 -83 -14 -101 -65 -111 -24 -5 -36 -1 -52 15 -18 18 -21 33 -21 96
0 60 -3 75 -15 75 -12 0 -15 -16 -15 -80z"/>
<path d="M3049 1361 c-24 -24 -29 -38 -29 -76 0 -65 39 -105 102 -105 48 0 96
26 80 42 -7 7 -18 5 -33 -6 -31 -22 -61 -20 -93 5 -21 16 -26 29 -26 64 0 35
5 48 26 64 32 25 62 27 93 5 15 -11 26 -13 33 -6 16 16 -32 42 -80 42 -35 0
-49 -6 -73 -29z"/>
<path d="M3274 1376 c-26 -19 -10 -32 21 -18 54 25 105 5 105 -39 0 -16 -7
-19 -46 -19 -90 0 -133 -51 -84 -100 22 -22 78 -27 111 -10 13 7 19 7 19 0 0
-5 7 -10 15 -10 12 0 15 16 15 85 0 72 -3 88 -20 105 -24 24 -106 28 -136 6z
m126 -118 c0 -32 -29 -58 -65 -58 -35 0 -55 15 -55 42 0 24 27 37 78 38 37 0
42 -3 42 -22z"/>
<path d="M3512 1374 c-14 -10 -22 -25 -22 -45 0 -25 6 -33 35 -45 19 -7 43
-14 54 -14 26 0 52 -27 44 -45 -8 -22 -50 -29 -91 -17 -42 13 -63 5 -37 -15
19 -13 101 -18 130 -7 23 9 37 51 25 74 -6 11 -29 24 -53 30 -77 20 -78 21
-75 42 5 33 31 44 78 32 31 -9 40 -8 40 1 0 28 -92 35 -128 9z"/>
<path d="M2580 895 c-7 -9 -9 -19 -5 -23 4 -4 10 -1 12 6 6 14 39 16 48 2 10
-16 52 -11 59 6 4 9 3 20 0 23 -4 3 -9 0 -11 -6 -6 -15 -39 -17 -48 -3 -9 15
-41 12 -55 -5z"/>
<path d="M702 763 c-34 -76 -62 -141 -62 -145 0 -21 22 -4 40 32 l20 40 80 0
80 0 16 -40 c9 -22 22 -40 30 -40 8 0 14 3 14 6 0 4 -28 69 -62 145 -43 96
-67 139 -78 139 -11 0 -36 -42 -78 -137z m105 44 c41 -95 43 -87 -30 -87 l-65
0 31 70 c18 38 34 70 37 70 3 0 15 -24 27 -53z"/>
<path d="M3200 880 c-24 -24 -25 -48 -4 -79 16 -22 15 -24 -15 -55 -36 -38
-41 -84 -12 -110 30 -27 90 -31 133 -8 37 19 38 19 54 0 12 -12 21 -15 28 -8
6 6 4 16 -8 29 -15 17 -17 25 -7 52 14 40 14 39 -3 39 -8 0 -17 -12 -21 -27
l-6 -26 -41 41 -41 41 31 26 c35 29 41 64 16 89 -22 23 -80 20 -104 -4z m94
-23 c9 -15 6 -23 -18 -43 -33 -29 -48 -27 -60 9 -7 18 -6 30 4 42 17 20 60 16
74 -8z m-10 -148 c36 -38 37 -41 20 -54 -11 -8 -38 -15 -61 -15 -32 0 -45 5
-57 22 -20 29 -20 30 5 62 28 36 50 33 93 -15z"/>
<path d="M3601 882 c-69 -37 -92 -137 -48 -203 31 -47 81 -71 134 -66 51 5
100 34 85 49 -7 7 -18 5 -33 -6 -29 -20 -81 -21 -118 -2 -91 48 -77 183 23
216 26 8 43 7 77 -4 52 -18 59 -19 59 -6 0 17 -58 40 -102 40 -24 0 -59 -8
-77 -18z"/>
<path d="M3850 754 c0 -112 3 -145 13 -142 6 3 13 25 15 51 l3 47 47 0 c46 0
49 -2 85 -50 34 -46 57 -62 57 -42 0 4 -14 28 -32 52 -22 30 -28 45 -20 48 27
9 52 47 52 80 0 73 -43 102 -150 102 l-70 0 0 -146z m168 100 c15 -10 22 -25
22 -49 0 -49 -37 -75 -106 -75 l-54 0 0 70 0 70 58 0 c36 0 66 -6 80 -16z"/>
<path d="M4142 758 c2 -100 7 -143 15 -145 9 -3 13 25 15 109 l3 113 55 -92
c30 -51 58 -93 62 -93 3 0 30 42 60 93 l53 92 5 -110 c7 -160 24 -140 28 33 2
114 0 142 -11 142 -7 0 -41 -48 -74 -106 l-61 -106 -42 74 c-74 127 -81 138
-96 138 -12 0 -14 -23 -12 -142z"/>
<path d="M1240 855 c0 -18 -5 -25 -20 -25 -11 0 -20 -4 -20 -10 0 -5 9 -10 20
-10 18 0 20 -7 20 -80 0 -67 3 -83 20 -100 24 -24 63 -26 80 -5 13 16 9 18
-29 15 -33 -3 -41 15 -41 98 l0 72 36 0 c21 0 33 4 29 10 -3 6 -19 10 -36 10
-24 0 -29 4 -29 25 0 16 -6 25 -15 25 -9 0 -15 -9 -15 -25z"/>
<path d="M960 749 c0 -76 2 -82 29 -110 33 -32 75 -38 107 -14 25 19 34 19 34
-1 0 -9 6 -14 13 -12 8 3 13 37 15 111 2 91 0 107 -13 107 -12 0 -15 -14 -15
-69 0 -84 -22 -121 -74 -121 -52 0 -66 24 -66 113 0 62 -3 77 -15 77 -12 0
-15 -16 -15 -81z"/>
<path d="M1411 804 c-60 -50 -46 -150 25 -180 99 -42 187 52 142 151 -26 57
-115 73 -167 29z m108 -9 c73 -37 46 -155 -36 -155 -86 0 -111 118 -33 157 32
16 35 16 69 -2z"/>
<path d="M1652 723 c2 -68 7 -108 14 -110 8 -3 13 22 15 76 5 91 17 112 68
113 51 2 65 -21 70 -113 4 -98 21 -100 24 -2 3 75 14 99 54 114 30 11 72 -8
78 -35 3 -12 6 -50 7 -86 4 -97 23 -75 23 26 0 78 -2 88 -24 105 -31 25 -91
25 -123 -1 -25 -19 -26 -19 -43 0 -22 24 -81 27 -113 4 -20 -14 -22 -14 -22 0
0 9 -7 16 -15 16 -13 0 -15 -16 -13 -107z"/>
<path d="M2103 820 c-13 -5 -23 -15 -23 -21 0 -7 9 -9 23 -5 64 18 75 18 96
-3 33 -33 27 -51 -18 -51 -53 0 -99 -18 -106 -42 -11 -31 2 -64 30 -76 34 -16
54 -15 87 2 23 12 27 12 33 -2 4 -11 9 -12 16 -5 7 7 10 43 7 93 -3 72 -6 84
-27 101 -25 20 -80 24 -118 9z m115 -126 c5 -32 -30 -56 -75 -52 -35 3 -38 5
-38 33 0 22 6 31 25 36 46 13 85 6 88 -17z"/>
<path d="M2365 818 c-60 -33 -74 -114 -29 -167 14 -17 32 -31 40 -31 8 0 18
-8 21 -17 4 -10 13 -23 21 -29 21 -16 5 -37 -24 -31 -26 5 -33 -7 -10 -16 41
-16 78 23 51 53 -20 22 -19 27 8 34 32 9 60 33 52 45 -4 8 -13 6 -28 -4 -54
-38 -127 -1 -127 64 0 44 13 66 49 80 25 11 35 10 66 -4 43 -21 59 -11 26 16
-26 21 -84 25 -116 7z"/>
<path d="M2575 818 c-28 -15 -28 -15 -21 -27 4 -6 16 -4 34 5 15 7 34 14 42
14 24 0 60 -29 60 -49 0 -15 -10 -19 -57 -23 -43 -4 -61 -10 -75 -28 -24 -30
-23 -46 7 -75 27 -28 57 -31 97 -11 23 12 27 12 32 0 3 -8 10 -14 16 -14 6 0
10 35 10 89 0 85 -1 91 -26 110 -29 23 -86 27 -119 9z m115 -124 c0 -26 -24
-53 -48 -55 -49 -4 -78 17 -68 49 7 22 30 30 84 29 26 -1 32 -5 32 -23z"/>
<path d="M2821 804 c-57 -47 -50 -137 13 -175 40 -24 73 -24 114 1 62 38 70
114 18 166 -44 44 -99 47 -145 8z m102 -5 c76 -34 52 -159 -29 -159 -91 0
-115 126 -30 160 28 12 31 12 59 -1z"/>
</g>
</svg>
